<svg width="38" height="38" viewBox="0 0 38 38" fill="none" xmlns="http://www.w3.org/2000/svg">
<circle cx="19" cy="19" r="18.5" stroke="black"/>
<path d="M13.6055 27V9.9375H18.4219C19.9062 9.9375 21.2188 10.2656 22.3594 10.9219C23.5 11.5781 24.3789 12.5117 24.9961 13.7227C25.6211 14.9336 25.9375 16.3242 25.9453 17.8945V18.9844C25.9453 20.5938 25.6328 22.0039 25.0078 23.2148C24.3906 24.4258 23.5039 25.3555 22.3477 26.0039C21.1992 26.6523 19.8594 26.9844 18.3281 27H13.6055ZM15.8555 11.7891V25.1602H18.2227C19.957 25.1602 21.3047 24.6211 22.2656 23.543C23.2344 22.4648 23.7188 20.9297 23.7188 18.9375V17.9414C23.7188 16.0039 23.2617 14.5 22.3477 13.4297C21.4414 12.3516 20.1523 11.8047 18.4805 11.7891H15.8555Z" fill="black"/>
</svg>
