<svg width="48" height="53" viewBox="0 0 48 53" fill="none" xmlns="http://www.w3.org/2000/svg">
<path d="M24.0432 1.10156C10.8147 1.10156 0.0876465 12.7556 0.0876465 27.1327C0.0876465 38.6341 6.95165 48.3918 16.4699 51.8339C17.6672 52.0749 18.1067 51.2692 18.1067 50.5816C18.1067 49.9609 18.0845 47.9103 18.0742 45.7351C11.4097 47.3098 10.0034 42.6637 10.0034 42.6637C8.9137 39.6548 7.34358 38.8548 7.34358 38.8548C5.17009 37.2391 7.50742 37.2723 7.50742 37.2723C9.91297 37.4555 11.1796 39.9549 11.1796 39.9549C13.3162 43.9345 16.7837 42.784 18.1507 42.1188C18.3657 40.4368 18.9866 39.2876 19.6716 38.6379C14.3508 37.9797 8.7574 35.7476 8.7574 25.7731C8.7574 22.931 9.6932 20.6088 11.2256 18.7858C10.9769 18.1297 10.1569 15.4825 11.4577 11.8969C11.4577 11.8969 13.4693 11.1972 18.0472 14.5652C19.9581 13.9884 22.0074 13.6992 24.0432 13.6893C26.0791 13.6992 28.13 13.9884 30.0444 14.5652C34.6167 11.1972 36.6256 11.8969 36.6256 11.8969C37.9295 15.4825 37.1091 18.1297 36.8604 18.7858C38.3964 20.6088 39.3259 22.931 39.3259 25.7731C39.3259 35.7713 33.7218 37.9728 28.3874 38.6172C29.2467 39.4251 30.0123 41.0093 30.0123 43.4379C30.0123 46.9205 29.9845 49.7238 29.9845 50.5816C29.9845 51.2744 30.4157 52.0861 31.63 51.8304C41.1431 48.3845 47.9984 38.6302 47.9984 27.1327C47.9984 12.7556 37.273 1.10156 24.0432 1.10156Z" fill="#191717"/>
<path d="M9.16085 38.4771C9.10809 38.6069 8.92085 38.6453 8.75027 38.5564C8.57652 38.4715 8.47893 38.295 8.53526 38.1652C8.58683 38.0319 8.77447 37.9952 8.94782 38.0836C9.12197 38.169 9.22115 38.3472 9.16085 38.4771Z" fill="#191717"/>
<path d="M10.1312 39.6533C10.0169 39.7685 9.79358 39.715 9.64205 39.5329C9.48535 39.3513 9.456 39.1084 9.57183 38.9915C9.68965 38.8763 9.90624 38.9302 10.0633 39.1119C10.22 39.2956 10.2506 39.5368 10.1312 39.6533Z" fill="#191717"/>
<path d="M11.0757 41.1526C10.9289 41.2635 10.6889 41.1595 10.5405 40.9278C10.3938 40.6962 10.3938 40.4183 10.5437 40.307C10.6925 40.1957 10.9289 40.2958 11.0792 40.5258C11.2256 40.7609 11.2256 41.0391 11.0757 41.1526Z" fill="#191717"/>
<path d="M12.3697 42.601C12.2384 42.7585 11.9587 42.7162 11.754 42.5014C11.5446 42.2913 11.4863 41.9932 11.618 41.8357C11.7509 41.6778 12.0321 41.7223 12.2384 41.9354C12.4463 42.145 12.5097 42.4453 12.3697 42.601Z" fill="#191717"/>
<path d="M14.1548 43.4418C14.0969 43.6459 13.8276 43.7386 13.5562 43.6519C13.2853 43.5626 13.108 43.3236 13.1627 43.1174C13.219 42.912 13.4896 42.8154 13.7629 42.9082C14.0334 42.997 14.2112 43.2343 14.1548 43.4418Z" fill="#191717"/>
<path d="M16.1153 43.5977C16.122 43.8126 15.892 43.9907 15.6071 43.9942C15.3207 44.0015 15.089 43.8277 15.0859 43.6163C15.0859 43.3993 15.3108 43.2229 15.5972 43.2177C15.882 43.2116 16.1153 43.3842 16.1153 43.5977Z" fill="#191717"/>
<path d="M17.9397 43.26C17.9738 43.4697 17.7759 43.685 17.493 43.7419C17.2149 43.7976 16.9575 43.6681 16.9222 43.4602C16.8877 43.2454 17.0892 43.0301 17.3669 42.9744C17.6501 42.9209 17.9036 43.0469 17.9397 43.26Z" fill="#191717"/>
</svg>
