<svg width="48" height="53" viewBox="0 0 48 53" fill="none" xmlns="http://www.w3.org/2000/svg">
<path fill-rule="evenodd" clip-rule="evenodd" d="M0 26.5508C0 40.7122 10.7452 52.1924 24 52.1924C37.2548 52.1924 48 40.7122 48 26.5508C48 12.3893 37.2548 0.90918 24 0.90918C10.7452 0.90918 0 12.3893 0 26.5508ZM19.6 38.3032L20.0083 31.767L20.008 31.7667L31.1369 21.0368C31.6253 20.5736 31.0303 20.3478 30.3819 20.7679L16.6473 30.0256L10.7147 28.0472C9.4335 27.6281 9.4243 26.6875 11.0023 26.0113L34.1203 16.4874C35.1762 15.9752 36.1953 16.7583 35.7922 18.4849L31.8552 38.3065C31.5803 39.7151 30.7837 40.0519 29.68 39.4013L23.6827 34.6673L20.8 37.6621C20.7909 37.6716 20.7819 37.681 20.7729 37.6904C20.4505 38.0257 20.1837 38.3032 19.6 38.3032Z" fill="#191717"/>
</svg>
